<mxfile host="Electron" modified="2024-03-26T19:43:07.266Z" agent="Mozilla/5.0 (Windows NT 10.0; Win64; x64) AppleWebKit/537.36 (KHTML, like Gecko) draw.io/24.1.0 Chrome/120.0.6099.109 Electron/28.1.0 Safari/537.36" etag="R_VXWJnylSrqsXoqdiLV" version="24.1.0" type="device">
  <diagram id="R2lEEEUBdFMjLlhIrx00" name="Page-1">
    <mxGraphModel dx="1434" dy="964" grid="1" gridSize="10" guides="1" tooltips="1" connect="1" arrows="1" fold="1" page="1" pageScale="1" pageWidth="850" pageHeight="1100" math="0" shadow="0" extFonts="Permanent Marker^https://fonts.googleapis.com/css?family=Permanent+Marker">
      <root>
        <mxCell id="0" />
        <mxCell id="1" parent="0" />
        <mxCell id="pVi2f2UJ7P3CycDykfJ_-3" value="Employee" style="swimlane;childLayout=stackLayout;horizontal=1;startSize=50;horizontalStack=0;rounded=1;fontSize=14;fontStyle=0;strokeWidth=2;resizeParent=0;resizeLast=1;shadow=0;dashed=0;align=center;arcSize=4;whiteSpace=wrap;html=1;" parent="1" vertex="1">
          <mxGeometry x="400" y="90" width="160" height="150" as="geometry" />
        </mxCell>
        <mxCell id="pVi2f2UJ7P3CycDykfJ_-4" value="Title&lt;div&gt;FirstName&lt;/div&gt;&lt;div&gt;MiddleName&lt;/div&gt;&lt;div&gt;LastName&lt;/div&gt;&lt;div&gt;Suffix&lt;/div&gt;&lt;div&gt;&lt;u&gt;SSN&lt;/u&gt;&lt;/div&gt;" style="align=left;strokeColor=none;fillColor=none;spacingLeft=4;fontSize=12;verticalAlign=top;resizable=0;rotatable=0;part=1;html=1;" parent="pVi2f2UJ7P3CycDykfJ_-3" vertex="1">
          <mxGeometry y="50" width="160" height="100" as="geometry" />
        </mxCell>
        <mxCell id="pVi2f2UJ7P3CycDykfJ_-42" style="edgeStyle=orthogonalEdgeStyle;fontSize=12;html=1;endArrow=ERzeroToMany;startArrow=ERmandOne;rounded=0;entryX=0.5;entryY=0;entryDx=0;entryDy=0;" parent="1" source="pVi2f2UJ7P3CycDykfJ_-5" target="pVi2f2UJ7P3CycDykfJ_-38" edge="1">
          <mxGeometry relative="1" as="geometry" />
        </mxCell>
        <mxCell id="pVi2f2UJ7P3CycDykfJ_-5" value="HourlyEmployee" style="swimlane;childLayout=stackLayout;horizontal=1;startSize=50;horizontalStack=0;rounded=1;fontSize=14;fontStyle=0;strokeWidth=2;resizeParent=0;resizeLast=1;shadow=0;dashed=0;align=center;arcSize=4;whiteSpace=wrap;html=1;" parent="1" vertex="1">
          <mxGeometry x="290" y="340" width="160" height="120" as="geometry" />
        </mxCell>
        <mxCell id="pVi2f2UJ7P3CycDykfJ_-6" value="HourlyRate" style="align=left;strokeColor=none;fillColor=none;spacingLeft=4;fontSize=12;verticalAlign=top;resizable=0;rotatable=0;part=1;html=1;" parent="pVi2f2UJ7P3CycDykfJ_-5" vertex="1">
          <mxGeometry y="50" width="160" height="70" as="geometry" />
        </mxCell>
        <mxCell id="pVi2f2UJ7P3CycDykfJ_-7" value="SalariedEmployee" style="swimlane;childLayout=stackLayout;horizontal=1;startSize=50;horizontalStack=0;rounded=1;fontSize=14;fontStyle=0;strokeWidth=2;resizeParent=0;resizeLast=1;shadow=0;dashed=0;align=center;arcSize=4;whiteSpace=wrap;html=1;" parent="1" vertex="1">
          <mxGeometry x="530" y="340" width="160" height="120" as="geometry" />
        </mxCell>
        <mxCell id="pVi2f2UJ7P3CycDykfJ_-8" value="AnnualSalary" style="align=left;strokeColor=none;fillColor=none;spacingLeft=4;fontSize=12;verticalAlign=top;resizable=0;rotatable=0;part=1;html=1;" parent="pVi2f2UJ7P3CycDykfJ_-7" vertex="1">
          <mxGeometry y="50" width="160" height="70" as="geometry" />
        </mxCell>
        <mxCell id="pVi2f2UJ7P3CycDykfJ_-10" style="rounded=0;orthogonalLoop=1;jettySize=auto;html=1;exitX=0.5;exitY=0;exitDx=0;exitDy=0;entryX=0.5;entryY=1;entryDx=0;entryDy=0;shape=link;" parent="1" source="pVi2f2UJ7P3CycDykfJ_-9" target="pVi2f2UJ7P3CycDykfJ_-4" edge="1">
          <mxGeometry relative="1" as="geometry" />
        </mxCell>
        <mxCell id="pVi2f2UJ7P3CycDykfJ_-9" value="D" style="ellipse;whiteSpace=wrap;html=1;aspect=fixed;" parent="1" vertex="1">
          <mxGeometry x="465" y="287" width="30" height="30" as="geometry" />
        </mxCell>
        <mxCell id="pVi2f2UJ7P3CycDykfJ_-11" value="" style="endArrow=none;html=1;rounded=0;entryX=0.5;entryY=0;entryDx=0;entryDy=0;" parent="1" source="pVi2f2UJ7P3CycDykfJ_-9" target="pVi2f2UJ7P3CycDykfJ_-7" edge="1">
          <mxGeometry width="50" height="50" relative="1" as="geometry">
            <mxPoint x="540" y="270" as="sourcePoint" />
            <mxPoint x="690" y="10" as="targetPoint" />
          </mxGeometry>
        </mxCell>
        <mxCell id="pVi2f2UJ7P3CycDykfJ_-14" value="" style="endArrow=none;html=1;rounded=0;entryX=0.5;entryY=0;entryDx=0;entryDy=0;exitX=0.038;exitY=0.638;exitDx=0;exitDy=0;exitPerimeter=0;" parent="1" source="pVi2f2UJ7P3CycDykfJ_-9" target="pVi2f2UJ7P3CycDykfJ_-5" edge="1">
          <mxGeometry width="50" height="50" relative="1" as="geometry">
            <mxPoint x="504" y="316" as="sourcePoint" />
            <mxPoint x="620" y="350" as="targetPoint" />
          </mxGeometry>
        </mxCell>
        <mxCell id="pVi2f2UJ7P3CycDykfJ_-20" value="" style="rounded=1;absoluteArcSize=1;html=1;arcSize=10;strokeWidth=3;" parent="1" vertex="1">
          <mxGeometry x="620" y="92" width="220" height="145" as="geometry" />
        </mxCell>
        <mxCell id="pVi2f2UJ7P3CycDykfJ_-21" value="" style="html=1;shape=mxgraph.er.anchor;whiteSpace=wrap;" parent="pVi2f2UJ7P3CycDykfJ_-20" vertex="1">
          <mxGeometry width="109.45273631840799" height="144.99999999999997" as="geometry" />
        </mxCell>
        <mxCell id="pVi2f2UJ7P3CycDykfJ_-23" value="Dependent" style="swimlane;childLayout=stackLayout;horizontal=1;startSize=50;horizontalStack=0;rounded=1;fontSize=14;fontStyle=0;strokeWidth=2;resizeParent=0;resizeLast=1;shadow=0;align=center;arcSize=4;whiteSpace=wrap;html=1;" parent="pVi2f2UJ7P3CycDykfJ_-20" vertex="1">
          <mxGeometry x="10.57" y="9.19" width="200.43" height="127.81" as="geometry" />
        </mxCell>
        <mxCell id="pVi2f2UJ7P3CycDykfJ_-24" value="FirstName&lt;div&gt;MiddleName&lt;/div&gt;&lt;div&gt;LastName&lt;/div&gt;&lt;div&gt;DependentType&lt;/div&gt;" style="align=left;strokeColor=none;fillColor=none;spacingLeft=4;fontSize=12;verticalAlign=top;resizable=0;rotatable=0;part=1;html=1;" parent="pVi2f2UJ7P3CycDykfJ_-23" vertex="1">
          <mxGeometry y="50" width="200.43" height="77.81" as="geometry" />
        </mxCell>
        <mxCell id="pVi2f2UJ7P3CycDykfJ_-30" value="" style="edgeStyle=orthogonalEdgeStyle;fontSize=12;html=1;endArrow=ERzeroToMany;startArrow=ERmandOne;rounded=0;exitX=1;exitY=0.25;exitDx=0;exitDy=0;entryX=0;entryY=0.5;entryDx=0;entryDy=0;" parent="1" source="pVi2f2UJ7P3CycDykfJ_-4" target="pVi2f2UJ7P3CycDykfJ_-20" edge="1">
          <mxGeometry width="100" height="100" relative="1" as="geometry">
            <mxPoint x="830" y="380" as="sourcePoint" />
            <mxPoint x="930" y="280" as="targetPoint" />
          </mxGeometry>
        </mxCell>
        <mxCell id="pVi2f2UJ7P3CycDykfJ_-32" value="HealthPlan" style="swimlane;childLayout=stackLayout;horizontal=1;startSize=50;horizontalStack=0;rounded=1;fontSize=14;fontStyle=0;strokeWidth=2;resizeParent=0;resizeLast=1;shadow=0;dashed=0;align=center;arcSize=4;whiteSpace=wrap;html=1;" parent="1" vertex="1">
          <mxGeometry x="160" y="97" width="160" height="120" as="geometry" />
        </mxCell>
        <mxCell id="pVi2f2UJ7P3CycDykfJ_-33" value="Name&lt;div&gt;AdultAnnualCost&lt;/div&gt;&lt;div&gt;ChildAnnualCost&lt;/div&gt;" style="align=left;strokeColor=none;fillColor=none;spacingLeft=4;fontSize=12;verticalAlign=top;resizable=0;rotatable=0;part=1;html=1;" parent="pVi2f2UJ7P3CycDykfJ_-32" vertex="1">
          <mxGeometry y="50" width="160" height="70" as="geometry" />
        </mxCell>
        <mxCell id="pVi2f2UJ7P3CycDykfJ_-35" value="" style="edgeStyle=orthogonalEdgeStyle;fontSize=12;html=1;endArrow=ERzeroToMany;startArrow=ERmandOne;rounded=0;exitX=1;exitY=0.25;exitDx=0;exitDy=0;entryX=0;entryY=0.25;entryDx=0;entryDy=0;" parent="1" source="pVi2f2UJ7P3CycDykfJ_-33" target="pVi2f2UJ7P3CycDykfJ_-4" edge="1">
          <mxGeometry width="100" height="100" relative="1" as="geometry">
            <mxPoint x="420" y="560" as="sourcePoint" />
            <mxPoint x="520" y="460" as="targetPoint" />
          </mxGeometry>
        </mxCell>
        <mxCell id="pVi2f2UJ7P3CycDykfJ_-36" value="PayPeriod" style="swimlane;childLayout=stackLayout;horizontal=1;startSize=50;horizontalStack=0;rounded=1;fontSize=14;fontStyle=0;strokeWidth=2;resizeParent=0;resizeLast=1;shadow=0;dashed=0;align=center;arcSize=4;whiteSpace=wrap;html=1;" parent="1" vertex="1">
          <mxGeometry x="410" y="540" width="160" height="110" as="geometry" />
        </mxCell>
        <mxCell id="pVi2f2UJ7P3CycDykfJ_-37" value="&lt;div&gt;ID&lt;/div&gt;&lt;div&gt;StartDate&lt;/div&gt;&lt;div&gt;EndDate&lt;/div&gt;" style="align=left;strokeColor=none;fillColor=none;spacingLeft=4;fontSize=12;verticalAlign=top;resizable=0;rotatable=0;part=1;html=1;" parent="pVi2f2UJ7P3CycDykfJ_-36" vertex="1">
          <mxGeometry y="50" width="160" height="60" as="geometry" />
        </mxCell>
        <mxCell id="pVi2f2UJ7P3CycDykfJ_-38" value="HourlyEmployeePayPeriod" style="swimlane;childLayout=stackLayout;horizontal=1;startSize=50;horizontalStack=0;rounded=1;fontSize=14;fontStyle=0;strokeWidth=2;resizeParent=0;resizeLast=1;shadow=0;dashed=0;align=center;arcSize=4;whiteSpace=wrap;html=1;" parent="1" vertex="1">
          <mxGeometry x="80" y="432" width="190" height="140" as="geometry" />
        </mxCell>
        <mxCell id="pVi2f2UJ7P3CycDykfJ_-39" value="RegularHours&lt;div&gt;OvertimeHours&lt;/div&gt;&lt;div&gt;TotalPay&lt;/div&gt;&lt;div&gt;FederalTax&lt;/div&gt;&lt;div&gt;HealthPlanDeduction&lt;/div&gt;" style="align=left;strokeColor=none;fillColor=none;spacingLeft=4;fontSize=12;verticalAlign=top;resizable=0;rotatable=0;part=1;html=1;" parent="pVi2f2UJ7P3CycDykfJ_-38" vertex="1">
          <mxGeometry y="50" width="190" height="90" as="geometry" />
        </mxCell>
        <mxCell id="pVi2f2UJ7P3CycDykfJ_-43" value="" style="edgeStyle=orthogonalEdgeStyle;fontSize=12;html=1;endArrow=ERzeroToMany;startArrow=ERmandOne;rounded=0;exitX=0.008;exitY=0.171;exitDx=0;exitDy=0;exitPerimeter=0;entryX=0.5;entryY=1;entryDx=0;entryDy=0;" parent="1" source="pVi2f2UJ7P3CycDykfJ_-37" target="pVi2f2UJ7P3CycDykfJ_-39" edge="1">
          <mxGeometry width="100" height="100" relative="1" as="geometry">
            <mxPoint x="80" y="400" as="sourcePoint" />
            <mxPoint x="180" y="300" as="targetPoint" />
          </mxGeometry>
        </mxCell>
        <mxCell id="pVi2f2UJ7P3CycDykfJ_-44" value="SalaryEmployeePayPeriod" style="swimlane;childLayout=stackLayout;horizontal=1;startSize=50;horizontalStack=0;rounded=1;fontSize=14;fontStyle=0;strokeWidth=2;resizeParent=0;resizeLast=1;shadow=0;dashed=0;align=center;arcSize=4;whiteSpace=wrap;html=1;" parent="1" vertex="1">
          <mxGeometry x="713" y="430" width="190" height="139" as="geometry" />
        </mxCell>
        <mxCell id="pVi2f2UJ7P3CycDykfJ_-45" value="RegularPay&lt;div&gt;BonusPay&lt;/div&gt;&lt;div&gt;TotalPay&lt;/div&gt;&lt;div&gt;FederalTax&lt;/div&gt;&lt;div&gt;HealthPlanDeduction&lt;/div&gt;" style="align=left;strokeColor=none;fillColor=none;spacingLeft=4;fontSize=12;verticalAlign=top;resizable=0;rotatable=0;part=1;html=1;" parent="pVi2f2UJ7P3CycDykfJ_-44" vertex="1">
          <mxGeometry y="50" width="190" height="89" as="geometry" />
        </mxCell>
        <mxCell id="pVi2f2UJ7P3CycDykfJ_-46" value="" style="edgeStyle=orthogonalEdgeStyle;fontSize=12;html=1;endArrow=ERzeroToMany;startArrow=ERmandOne;rounded=0;exitX=1.005;exitY=0.148;exitDx=0;exitDy=0;exitPerimeter=0;entryX=0.5;entryY=1;entryDx=0;entryDy=0;" parent="1" source="pVi2f2UJ7P3CycDykfJ_-37" target="pVi2f2UJ7P3CycDykfJ_-45" edge="1">
          <mxGeometry width="100" height="100" relative="1" as="geometry">
            <mxPoint x="421" y="612" as="sourcePoint" />
            <mxPoint x="185" y="540" as="targetPoint" />
          </mxGeometry>
        </mxCell>
        <mxCell id="pVi2f2UJ7P3CycDykfJ_-47" value="" style="edgeStyle=orthogonalEdgeStyle;fontSize=12;html=1;endArrow=ERzeroToMany;startArrow=ERmandOne;rounded=0;exitX=0.5;exitY=0;exitDx=0;exitDy=0;entryX=1.005;entryY=0.426;entryDx=0;entryDy=0;entryPerimeter=0;" parent="1" source="pVi2f2UJ7P3CycDykfJ_-44" target="pVi2f2UJ7P3CycDykfJ_-7" edge="1">
          <mxGeometry width="100" height="100" relative="1" as="geometry">
            <mxPoint x="581" y="610" as="sourcePoint" />
            <mxPoint x="775" y="570" as="targetPoint" />
          </mxGeometry>
        </mxCell>
        <mxCell id="Th4jbn6U8teBn4J9kQlE-1" style="edgeStyle=orthogonalEdgeStyle;rounded=0;orthogonalLoop=1;jettySize=auto;html=1;" edge="1" parent="1" source="pVi2f2UJ7P3CycDykfJ_-45">
          <mxGeometry relative="1" as="geometry">
            <mxPoint x="800" y="590" as="targetPoint" />
          </mxGeometry>
        </mxCell>
        <mxCell id="Th4jbn6U8teBn4J9kQlE-5" value="Notes:&amp;nbsp; The total pay is saved for every pay period because the HourlyRate/AnnualSalary can change at &lt;br&gt;any point and that would change the TotalPay for that pay period." style="text;html=1;align=center;verticalAlign=middle;resizable=0;points=[];autosize=1;strokeColor=none;fillColor=none;" vertex="1" parent="1">
          <mxGeometry x="210" y="665" width="580" height="40" as="geometry" />
        </mxCell>
      </root>
    </mxGraphModel>
  </diagram>
</mxfile>
